<?xml version="1.0" standalone="no"?>
<!DOCTYPE svg PUBLIC "-//W3C//DTD SVG 20010904//EN"
 "http://www.w3.org/TR/2001/REC-SVG-20010904/DTD/svg10.dtd">
<svg version="1.0" xmlns="http://www.w3.org/2000/svg"
 width="907.000000pt" height="907.000000pt" viewBox="0 0 907.000000 907.000000"
 preserveAspectRatio="xMidYMid meet">
<metadata>
Created by potrace 1.11, written by Peter Selinger 2001-2013
</metadata>
<g transform="translate(0.000000,907.000000) scale(0.100000,-0.100000)"
fill="#000000" stroke="none">
<path d="M2039 7616 c-2 -3 -99 -15 -214 -27 -229 -24 -531 -29 -911 -15
l-201 8 -21 -136 c-12 -74 -19 -141 -17 -148 4 -11 35 -13 140 -10 163 5 195
0 240 -39 70 -62 66 28 65 -1564 -1 -1345 -4 -1506 -28 -1590 -41 -139 -145
-219 -357 -273 l-103 -26 -18 -133 c-9 -74 -14 -136 -11 -139 3 -3 31 -1 63 5
238 42 985 68 1314 45 l95 -7 29 147 c17 85 25 151 20 156 -5 5 -56 4 -119 -2
-341 -32 -419 22 -440 302 -6 88 20 1218 29 1227 6 7 202 23 646 53 233 16
398 20 790 20 272 0 505 -3 518 -6 l23 -7 -3 -626 c-4 -608 -5 -628 -26 -705
-51 -184 -130 -245 -340 -265 -51 -4 -96 -12 -100 -15 -6 -6 -63 -270 -59
-272 1 0 162 2 357 5 195 3 528 2 739 -2 211 -4 385 -6 387 -4 9 8 55 259 52
280 -2 17 -9 22 -28 20 -206 -13 -312 -15 -359 -3 -91 22 -139 80 -160 195
-22 120 -13 727 29 1861 32 852 47 1133 64 1187 22 74 57 119 116 151 51 28
174 65 215 66 43 1 49 14 61 152 7 73 11 134 10 135 -1 1 -58 -4 -127 -12
-327 -37 -573 -46 -1024 -35 l-209 5 -22 -135 c-13 -82 -18 -139 -13 -145 6
-6 70 -8 157 -7 137 3 150 2 191 -20 55 -29 79 -72 93 -170 10 -67 5 -1264 -5
-1274 -7 -7 -358 -43 -522 -54 -215 -14 -1445 -14 -1445 0 0 104 43 1113 50
1185 26 251 86 320 319 369 40 8 74 16 76 18 5 5 25 202 25 244 0 30 -16 45
-31 30z"/>
<path d="M5800 5579 c-178 -23 -633 -34 -938 -22 -118 4 -216 5 -218 2 -7 -12
-45 -261 -41 -272 3 -9 50 -12 158 -12 187 0 219 -11 259 -91 l25 -49 3 -1425
c1 -849 -1 -1459 -7 -1510 -17 -155 -61 -242 -153 -303 -55 -36 -194 -90 -263
-101 -22 -4 -46 -10 -53 -15 -7 -4 -20 -65 -30 -145 l-19 -137 26 6 c174 44
842 72 1321 55 l135 -4 27 144 c16 79 24 148 20 152 -5 5 -73 4 -153 -1 -212
-13 -286 2 -342 69 -64 75 -70 160 -57 810 6 305 13 578 16 606 l5 51 152 12
c713 54 742 55 1375 53 l453 -2 -4 -622 c-3 -528 -6 -633 -20 -690 -51 -216
-144 -285 -407 -300 l-44 -3 -21 -105 c-12 -58 -24 -119 -28 -136 l-6 -31 597
1 c328 1 663 -3 743 -7 l147 -9 27 147 c17 92 24 150 18 156 -6 6 -63 6 -154
0 -285 -17 -355 18 -388 194 -27 142 -7 1093 54 2530 17 414 22 470 41 535 30
101 117 162 281 195 48 10 90 19 91 21 5 3 30 268 27 272 -2 2 -101 -7 -221
-20 -197 -21 -266 -23 -680 -23 l-461 1 -20 -131 c-11 -71 -18 -136 -15 -144
4 -11 27 -12 122 -6 239 14 295 -20 320 -195 8 -52 9 -256 4 -676 l-7 -600
-161 -17 c-383 -41 -410 -42 -1110 -39 -379 1 -691 4 -693 6 -7 7 37 1133 47
1214 17 129 45 205 92 249 37 35 123 70 218 89 l88 18 6 60 c3 34 8 96 12 139
l7 77 -29 -1 c-16 -1 -94 -10 -174 -20z"/>
</g>
</svg>
