<svg id="Capa_1" data-name="Capa 1" xmlns="http://www.w3.org/2000/svg" viewBox="0 0 512 512"><title>instagram</title><path d="M416.67,0H95.33A95.44,95.44,0,0,0,0,95.33V416.67A95.44,95.44,0,0,0,95.33,512H416.67A95.44,95.44,0,0,0,512,416.67V95.33A95.44,95.44,0,0,0,416.67,0ZM482,416.67A65.41,65.41,0,0,1,416.67,482H95.33A65.41,65.41,0,0,1,30,416.67V95.33A65.41,65.41,0,0,1,95.33,30H416.67A65.41,65.41,0,0,1,482,95.33Z" style="fill:#000"/><path d="M256,144.6A111.4,111.4,0,1,0,367.4,256,111.52,111.52,0,0,0,256,144.6Zm0,192.8A81.4,81.4,0,1,1,337.4,256,81.5,81.5,0,0,1,256,337.4Z" style="fill:#000"/><path d="M411.21,100.79a15,15,0,1,0,4.39,10.61A15.11,15.11,0,0,0,411.21,100.79Z" style="fill:#000"/></svg>